<svg xmlns="http://www.w3.org/2000/svg" xmlns:xlink="http://www.w3.org/1999/xlink" width="1200" zoomAndPan="magnify" viewBox="0 0 900 225" height="300" preserveAspectRatio="xMidYMid meet" version="1.0"><defs><g/><clipPath id="df6fca1d0f"><path d="M 22.5 92 L 63 92 L 63 161 L 22.5 161 Z M 22.5 92 " clip-rule="nonzero"/></clipPath><clipPath id="85eec1c1cd"><path d="M 116 92 L 156.75 92 L 156.75 161 L 116 161 Z M 116 92 " clip-rule="nonzero"/></clipPath><clipPath id="2d0b012b30"><path d="M 24 114 L 155 114 L 155 163.621094 L 24 163.621094 Z M 24 114 " clip-rule="nonzero"/></clipPath></defs><g fill="#2563eb" fill-opacity="1"><g transform="translate(162.2109, 152.250004)"><g><path d="M 81.328125 0 L 81.328125 -30.328125 C 81.328125 -34.078125 81.46875 -37.925781 81.75 -41.875 C 82.039062 -45.832031 82.347656 -49.15625 82.671875 -51.84375 C 82.992188 -54.539062 83.195312 -56.253906 83.28125 -56.984375 L 82.796875 -56.984375 L 67.265625 0 L 46.109375 0 L 30.453125 -56.875 L 29.96875 -56.875 C 30.039062 -56.132812 30.257812 -54.4375 30.625 -51.78125 C 31 -49.132812 31.347656 -45.832031 31.671875 -41.875 C 31.992188 -37.925781 32.15625 -34.078125 32.15625 -30.328125 L 32.15625 0 L 7.34375 0 L 7.34375 -84.140625 L 45.5 -84.140625 L 58.21875 -35.59375 L 58.703125 -35.59375 L 71.296875 -84.140625 L 108.109375 -84.140625 L 108.109375 0 Z M 81.328125 0 "/></g></g></g><g fill="#2563eb" fill-opacity="1"><g transform="translate(277.648056, 152.250004)"><g><path d="M 39.25 -66.046875 C 49.125 -66.046875 57.15625 -64.394531 63.34375 -61.09375 C 69.539062 -57.789062 72.640625 -52.425781 72.640625 -45 L 72.640625 -19.8125 C 72.640625 -18.425781 72.960938 -17.285156 73.609375 -16.390625 C 74.265625 -15.492188 75.25 -15.046875 76.5625 -15.046875 L 80.953125 -15.046875 L 80.953125 -0.984375 C 80.710938 -0.816406 80.082031 -0.550781 79.0625 -0.1875 C 78.039062 0.175781 76.59375 0.539062 74.71875 0.90625 C 72.84375 1.28125 70.679688 1.46875 68.234375 1.46875 C 63.503906 1.46875 59.609375 0.753906 56.546875 -0.671875 C 53.492188 -2.097656 51.398438 -4.078125 50.265625 -6.609375 C 47.160156 -4.160156 43.691406 -2.203125 39.859375 -0.734375 C 36.035156 0.734375 31.554688 1.46875 26.421875 1.46875 C 11.253906 1.46875 3.671875 -4.5625 3.671875 -16.625 C 3.671875 -22.90625 5.359375 -27.695312 8.734375 -31 C 12.117188 -34.300781 16.988281 -36.5625 23.34375 -37.78125 C 29.707031 -39.007812 38.03125 -39.625 48.3125 -39.625 L 48.3125 -42.796875 C 48.3125 -45.328125 47.429688 -47.242188 45.671875 -48.546875 C 43.921875 -49.859375 41.660156 -50.515625 38.890625 -50.515625 C 36.359375 -50.515625 34.175781 -50.0625 32.34375 -49.15625 C 30.507812 -48.257812 29.59375 -46.835938 29.59375 -44.890625 L 29.59375 -44.390625 L 5.625 -44.390625 C 5.539062 -44.796875 5.5 -45.367188 5.5 -46.109375 C 5.5 -52.222656 8.410156 -57.070312 14.234375 -60.65625 C 20.066406 -64.25 28.40625 -66.046875 39.25 -66.046875 Z M 48.3125 -28.125 C 41.375 -28.125 36.253906 -27.367188 32.953125 -25.859375 C 29.648438 -24.359375 28 -22.34375 28 -19.8125 C 28 -15.738281 30.773438 -13.703125 36.328125 -13.703125 C 39.503906 -13.703125 42.296875 -14.554688 44.703125 -16.265625 C 47.109375 -17.972656 48.3125 -20.09375 48.3125 -22.625 Z M 48.3125 -28.125 "/></g></g></g><g fill="#2563eb" fill-opacity="1"><g transform="translate(359.212235, 152.250004)"><g><path d="M 8.1875 -72.15625 L 8.1875 -88.671875 L 32.53125 -88.671875 L 32.53125 -72.15625 Z M 8.1875 0 L 8.1875 -64.578125 L 32.53125 -64.578125 L 32.53125 0 Z M 8.1875 0 "/></g></g></g><g fill="#2563eb" fill-opacity="1"><g transform="translate(399.933196, 152.250004)"><g><path d="M 8.1875 0 L 8.1875 -88.671875 L 32.53125 -88.671875 L 32.53125 0 Z M 8.1875 0 "/></g></g></g><g fill="#f46d3b" fill-opacity="1"><g transform="translate(440.660111, 152.250004)"><g><path d="M 65.796875 0 L 65.796875 -31.921875 L 36.078125 -31.921875 L 36.078125 0 L 9.046875 0 L 9.046875 -84.140625 L 36.078125 -84.140625 L 36.078125 -53.4375 L 65.796875 -53.4375 L 65.796875 -84.140625 L 92.828125 -84.140625 L 92.828125 0 Z M 65.796875 0 "/></g></g></g><g fill="#f46d3b" fill-opacity="1"><g transform="translate(542.523613, 152.250004)"><g><path d="M 54.171875 0 L 52.59375 -9.78125 C 50.0625 -6.28125 46.734375 -3.53125 42.609375 -1.53125 C 38.492188 0.46875 34.15625 1.46875 29.59375 1.46875 C 22.09375 1.46875 16.46875 -0.609375 12.71875 -4.765625 C 8.96875 -8.921875 7.09375 -14.914062 7.09375 -22.75 L 7.09375 -64.578125 L 31.4375 -64.578125 L 31.4375 -25.6875 C 31.4375 -22.914062 32.144531 -20.691406 33.5625 -19.015625 C 34.988281 -17.347656 37.007812 -16.515625 39.625 -16.515625 C 42.644531 -16.515625 45.09375 -17.488281 46.96875 -19.4375 C 48.84375 -21.394531 49.78125 -23.800781 49.78125 -26.65625 L 49.78125 -64.578125 L 74.109375 -64.578125 L 74.109375 0 Z M 54.171875 0 "/></g></g></g><g fill="#f46d3b" fill-opacity="1"><g transform="translate(624.087792, 152.250004)"><g><path d="M 51.859375 -66.046875 C 59.359375 -66.046875 64.984375 -63.960938 68.734375 -59.796875 C 72.484375 -55.640625 74.359375 -49.648438 74.359375 -41.828125 L 74.359375 0 L 50.015625 0 L 50.015625 -38.890625 C 50.015625 -41.660156 49.300781 -43.878906 47.875 -45.546875 C 46.445312 -47.222656 44.429688 -48.0625 41.828125 -48.0625 C 38.804688 -48.0625 36.359375 -47.082031 34.484375 -45.125 C 32.609375 -43.164062 31.671875 -40.757812 31.671875 -37.90625 L 31.671875 0 L 7.34375 0 L 7.34375 -64.578125 L 27.265625 -64.578125 L 28.859375 -54.78125 C 31.390625 -58.207031 34.710938 -60.941406 38.828125 -62.984375 C 42.941406 -65.023438 47.285156 -66.046875 51.859375 -66.046875 Z M 51.859375 -66.046875 "/></g></g></g><g fill="#f46d3b" fill-opacity="1"><g transform="translate(705.651982, 152.250004)"><g><path d="M 50.390625 -64.578125 L 50.390625 -48.0625 L 36.6875 -48.0625 L 36.6875 -23.484375 C 36.6875 -20.546875 37.175781 -18.40625 38.15625 -17.0625 C 39.132812 -15.71875 40.925781 -15.046875 43.53125 -15.046875 L 50.390625 -15.046875 L 50.390625 -0.734375 C 48.429688 -0.078125 45.898438 0.453125 42.796875 0.859375 C 39.703125 1.265625 37.015625 1.46875 34.734375 1.46875 C 27.554688 1.46875 22.03125 0.164062 18.15625 -2.4375 C 14.289062 -5.050781 12.359375 -9.5 12.359375 -15.78125 L 12.359375 -48.0625 L 3.296875 -48.0625 L 3.296875 -64.578125 L 13.328125 -64.578125 L 18.59375 -84.140625 L 36.6875 -84.140625 L 36.6875 -64.578125 Z M 50.390625 -64.578125 "/></g></g></g><g fill="#f46d3b" fill-opacity="1"><g transform="translate(759.946551, 152.250004)"><g><path d="M 40.71875 -66.046875 C 52.539062 -66.046875 61.570312 -63.269531 67.8125 -57.71875 C 74.050781 -52.175781 77.171875 -43.695312 77.171875 -32.28125 L 77.171875 -28.125 L 28.734375 -28.125 C 28.734375 -23.476562 29.773438 -19.972656 31.859375 -17.609375 C 33.941406 -15.242188 37.222656 -14.0625 41.703125 -14.0625 C 45.773438 -14.0625 48.769531 -14.914062 50.6875 -16.625 C 52.601562 -18.34375 53.5625 -20.628906 53.5625 -23.484375 L 77.171875 -23.484375 C 77.171875 -15.648438 74.191406 -9.53125 68.234375 -5.125 C 62.285156 -0.726562 53.601562 1.46875 42.1875 1.46875 C 30.207031 1.46875 20.914062 -1.320312 14.3125 -6.90625 C 7.707031 -12.488281 4.40625 -20.945312 4.40625 -32.28125 C 4.40625 -43.375 7.625 -51.773438 14.0625 -57.484375 C 20.5 -63.191406 29.382812 -66.046875 40.71875 -66.046875 Z M 41.703125 -50.515625 C 34.035156 -50.515625 29.753906 -46.882812 28.859375 -39.625 L 52.59375 -39.625 C 52.59375 -42.96875 51.632812 -45.617188 49.71875 -47.578125 C 47.800781 -49.535156 45.128906 -50.515625 41.703125 -50.515625 Z M 41.703125 -50.515625 "/></g></g></g><g fill="#f46d3b" fill-opacity="1"><g transform="translate(841.510741, 152.250004)"><g><path d="M 46.59375 -66.15625 C 48.46875 -66.15625 50.140625 -65.929688 51.609375 -65.484375 C 53.078125 -65.035156 53.8125 -64.769531 53.8125 -64.6875 L 53.8125 -44.265625 L 45.984375 -44.265625 C 40.929688 -44.265625 37.28125 -42.957031 35.03125 -40.34375 C 32.789062 -37.738281 31.671875 -33.867188 31.671875 -28.734375 L 31.671875 0 L 7.34375 0 L 7.34375 -64.578125 L 27.265625 -64.578125 L 28.859375 -54.78125 C 30.328125 -58.539062 32.648438 -61.375 35.828125 -63.28125 C 39.015625 -65.195312 42.601562 -66.15625 46.59375 -66.15625 Z M 46.59375 -66.15625 "/></g></g></g><path fill="#f46d3b" d="M 153.199219 89.265625 L 152.863281 88.976562 L 149.371094 85.984375 L 146.976562 83.925781 L 146.976562 97.1875 L 154.5625 90.699219 C 154.160156 90.175781 153.703125 89.695312 153.199219 89.265625 Z M 153.199219 89.265625 " fill-opacity="1" fill-rule="nonzero"/><path fill="#f46d3b" d="M 32.074219 83.925781 L 29.679688 85.984375 L 26.1875 88.976562 L 25.851562 89.265625 C 25.347656 89.695312 24.890625 90.175781 24.488281 90.699219 L 32.074219 97.1875 Z M 32.074219 83.925781 " fill-opacity="1" fill-rule="nonzero"/><path fill="#f46d3b" d="M 120.261719 61.015625 L 106.160156 48.929688 C 105.589844 48.4375 104.992188 47.972656 104.378906 47.535156 C 103.761719 47.097656 103.128906 46.6875 102.480469 46.308594 C 101.828125 45.925781 101.160156 45.574219 100.476562 45.25 C 99.796875 44.925781 99.101562 44.632812 98.390625 44.371094 C 97.683594 44.113281 96.964844 43.882812 96.238281 43.683594 C 95.507812 43.484375 94.773438 43.320312 94.027344 43.1875 C 93.285156 43.054688 92.539062 42.957031 91.785156 42.890625 C 91.035156 42.824219 90.28125 42.789062 89.523438 42.789062 C 88.769531 42.789062 88.015625 42.824219 87.265625 42.890625 C 86.511719 42.957031 85.765625 43.054688 85.023438 43.1875 C 84.277344 43.320312 83.542969 43.484375 82.8125 43.683594 C 82.085938 43.882812 81.367188 44.113281 80.660156 44.371094 C 79.949219 44.632812 79.253906 44.925781 78.574219 45.25 C 77.890625 45.574219 77.222656 45.925781 76.570312 46.308594 C 75.921875 46.6875 75.289062 47.097656 74.671875 47.535156 C 74.058594 47.972656 73.460938 48.4375 72.890625 48.929688 L 58.789062 61.015625 L 55.988281 63.410156 L 123.0625 63.410156 Z M 120.261719 61.015625 " fill-opacity="1" fill-rule="nonzero"/><path fill="#f46d3b" d="M 96.707031 104.65625 L 96.707031 96.363281 L 89.523438 92.21875 L 82.34375 96.363281 L 82.34375 104.65625 L 89.523438 108.800781 Z M 96.707031 104.65625 " fill-opacity="1" fill-rule="nonzero"/><path fill="#f46d3b" d="M 103.800781 111.515625 L 99.101562 108.800781 L 92.835938 112.417969 C 96.878906 112.898438 100.640625 114.203125 104.113281 116.328125 Z M 103.800781 111.515625 " fill-opacity="1" fill-rule="nonzero"/><path fill="#f46d3b" d="M 62.261719 123.0625 L 64.390625 124.882812 L 70.3125 119.800781 C 70.085938 119.410156 69.980469 118.992188 69.996094 118.542969 L 70.449219 111.523438 L 64.144531 108.40625 C 63.859375 108.265625 63.613281 108.074219 63.402344 107.835938 C 63.195312 107.597656 63.039062 107.328125 62.9375 107.027344 C 62.835938 106.726562 62.796875 106.417969 62.816406 106.101562 C 62.839844 105.785156 62.917969 105.484375 63.058594 105.199219 C 63.199219 104.914062 63.390625 104.667969 63.628906 104.457031 C 63.867188 104.25 64.136719 104.09375 64.4375 103.992188 C 64.738281 103.890625 65.046875 103.851562 65.363281 103.871094 C 65.679688 103.890625 65.980469 103.972656 66.265625 104.113281 L 72.855469 107.367188 L 77.554688 104.65625 L 77.554688 96.363281 L 72.855469 93.648438 L 66.265625 96.90625 C 65.980469 97.046875 65.679688 97.128906 65.363281 97.148438 C 65.046875 97.171875 64.738281 97.128906 64.4375 97.027344 C 64.136719 96.925781 63.867188 96.769531 63.625 96.5625 C 63.386719 96.351562 63.199219 96.105469 63.054688 95.820312 C 62.914062 95.535156 62.835938 95.234375 62.8125 94.917969 C 62.792969 94.601562 62.832031 94.292969 62.933594 93.992188 C 63.035156 93.691406 63.191406 93.421875 63.402344 93.183594 C 63.609375 92.945312 63.859375 92.753906 64.144531 92.613281 L 70.449219 89.496094 L 69.996094 82.476562 C 69.976562 82.15625 70.015625 81.847656 70.117188 81.546875 C 70.222656 81.246094 70.375 80.976562 70.585938 80.738281 C 70.796875 80.5 71.042969 80.308594 71.328125 80.171875 C 71.613281 80.03125 71.914062 79.949219 72.230469 79.929688 C 72.546875 79.910156 72.855469 79.949219 73.15625 80.050781 C 73.457031 80.15625 73.726562 80.3125 73.964844 80.519531 C 74.207031 80.730469 74.394531 80.976562 74.535156 81.261719 C 74.675781 81.546875 74.753906 81.847656 74.773438 82.167969 L 75.25 89.5 L 79.949219 92.214844 L 87.132812 88.070312 L 87.132812 82.640625 L 81.015625 78.5625 C 80.75 78.390625 80.527344 78.167969 80.347656 77.90625 C 80.167969 77.640625 80.042969 77.351562 79.980469 77.039062 C 79.917969 76.726562 79.914062 76.414062 79.976562 76.101562 C 80.039062 75.789062 80.15625 75.496094 80.335938 75.230469 C 80.511719 74.964844 80.734375 74.746094 81 74.566406 C 81.265625 74.390625 81.554688 74.273438 81.867188 74.210938 C 82.179688 74.148438 82.492188 74.152344 82.804688 74.214844 C 83.121094 74.277344 83.40625 74.402344 83.671875 74.582031 L 89.523438 78.480469 L 95.378906 74.578125 C 95.644531 74.398438 95.929688 74.277344 96.246094 74.214844 C 96.558594 74.148438 96.871094 74.148438 97.183594 74.210938 C 97.496094 74.269531 97.785156 74.390625 98.050781 74.566406 C 98.316406 74.746094 98.539062 74.964844 98.714844 75.230469 C 98.894531 75.496094 99.011719 75.785156 99.074219 76.101562 C 99.136719 76.414062 99.132812 76.726562 99.070312 77.039062 C 99.007812 77.351562 98.882812 77.640625 98.703125 77.90625 C 98.523438 78.167969 98.300781 78.386719 98.035156 78.5625 L 91.917969 82.640625 L 91.917969 88.070312 L 99.101562 92.214844 L 103.800781 89.5 L 104.277344 82.167969 C 104.296875 81.847656 104.375 81.546875 104.515625 81.261719 C 104.65625 80.976562 104.847656 80.730469 105.085938 80.519531 C 105.324219 80.3125 105.59375 80.15625 105.894531 80.050781 C 106.195312 79.949219 106.503906 79.910156 106.820312 79.929688 C 107.136719 79.949219 107.4375 80.03125 107.722656 80.171875 C 108.007812 80.308594 108.253906 80.5 108.464844 80.738281 C 108.675781 80.976562 108.832031 81.246094 108.933594 81.546875 C 109.035156 81.847656 109.074219 82.15625 109.054688 82.476562 L 108.601562 89.496094 L 114.90625 92.613281 C 115.191406 92.753906 115.4375 92.945312 115.648438 93.183594 C 115.855469 93.421875 116.011719 93.691406 116.113281 93.992188 C 116.214844 94.292969 116.253906 94.601562 116.230469 94.917969 C 116.210938 95.234375 116.128906 95.535156 115.988281 95.820312 C 115.847656 96.101562 115.660156 96.351562 115.421875 96.558594 C 115.183594 96.765625 114.914062 96.921875 114.613281 97.023438 C 114.3125 97.125 114.003906 97.167969 113.6875 97.144531 C 113.371094 97.125 113.070312 97.046875 112.785156 96.90625 L 106.195312 93.648438 L 101.496094 96.363281 L 101.496094 104.65625 L 106.199219 107.371094 L 112.785156 104.113281 C 113.070312 103.972656 113.371094 103.894531 113.6875 103.871094 C 114.003906 103.851562 114.3125 103.890625 114.613281 103.992188 C 114.914062 104.09375 115.183594 104.25 115.421875 104.460938 C 115.660156 104.667969 115.851562 104.914062 115.992188 105.199219 C 116.132812 105.484375 116.210938 105.785156 116.234375 106.101562 C 116.253906 106.417969 116.214844 106.726562 116.113281 107.027344 C 116.011719 107.328125 115.855469 107.597656 115.648438 107.835938 C 115.4375 108.074219 115.191406 108.265625 114.90625 108.40625 L 108.601562 111.523438 L 109.054688 118.542969 C 109.070312 118.992188 108.964844 119.410156 108.738281 119.800781 L 114.660156 124.882812 L 116.789062 123.0625 L 141.039062 102.285156 L 144.582031 99.246094 L 144.582031 75.378906 C 144.582031 74.75 144.519531 74.128906 144.398438 73.511719 C 144.277344 72.894531 144.09375 72.296875 143.855469 71.714844 C 143.613281 71.132812 143.320312 70.582031 142.96875 70.058594 C 142.621094 69.535156 142.222656 69.054688 141.777344 68.609375 C 141.332031 68.164062 140.851562 67.765625 140.328125 67.417969 C 139.804688 67.070312 139.253906 66.773438 138.671875 66.535156 C 138.089844 66.292969 137.492188 66.109375 136.875 65.988281 C 136.257812 65.867188 135.636719 65.804688 135.007812 65.804688 L 44.042969 65.804688 C 43.414062 65.804688 42.792969 65.867188 42.175781 65.988281 C 41.558594 66.109375 40.960938 66.292969 40.378906 66.535156 C 39.796875 66.773438 39.246094 67.070312 38.722656 67.417969 C 38.199219 67.765625 37.71875 68.164062 37.273438 68.609375 C 36.828125 69.054688 36.429688 69.535156 36.082031 70.058594 C 35.730469 70.582031 35.4375 71.132812 35.195312 71.714844 C 34.957031 72.296875 34.773438 72.894531 34.652344 73.511719 C 34.53125 74.128906 34.46875 74.75 34.46875 75.378906 L 34.46875 99.246094 L 38.011719 102.285156 Z M 62.261719 123.0625 " fill-opacity="1" fill-rule="nonzero"/><path fill="#f46d3b" d="M 75.25 111.515625 L 74.9375 116.328125 C 78.414062 114.203125 82.171875 112.898438 86.214844 112.417969 L 79.949219 108.800781 Z M 75.25 111.515625 " fill-opacity="1" fill-rule="nonzero"/><g clip-path="url(#df6fca1d0f)"><path fill="#f46d3b" d="M 60.703125 124.882812 L 36.457031 104.105469 L 23.289062 92.808594 C 22.757812 93.996094 22.496094 95.238281 22.5 96.539062 L 22.5 156.769531 C 22.5 157.03125 22.523438 157.320312 22.546875 157.582031 C 22.644531 158.46875 22.898438 159.304688 23.3125 160.09375 L 62.546875 126.464844 Z M 60.703125 124.882812 " fill-opacity="1" fill-rule="nonzero"/></g><g clip-path="url(#85eec1c1cd)"><path fill="#f46d3b" d="M 155.761719 92.808594 L 142.59375 104.105469 L 118.347656 124.882812 L 116.503906 126.464844 L 155.738281 160.09375 C 156.152344 159.304688 156.40625 158.46875 156.503906 157.582031 C 156.527344 157.320312 156.550781 157.03125 156.550781 156.769531 L 156.550781 96.539062 C 156.554688 95.238281 156.292969 93.996094 155.761719 92.808594 Z M 155.761719 92.808594 " fill-opacity="1" fill-rule="nonzero"/></g><g clip-path="url(#2d0b012b30)"><path fill="#f46d3b" d="M 106.160156 120.734375 C 105.589844 120.246094 104.992188 119.78125 104.378906 119.34375 C 103.761719 118.90625 103.128906 118.496094 102.480469 118.113281 C 101.828125 117.730469 101.160156 117.378906 100.476562 117.054688 C 99.796875 116.734375 99.101562 116.441406 98.390625 116.179688 C 97.683594 115.917969 96.964844 115.6875 96.238281 115.492188 C 95.507812 115.292969 94.773438 115.128906 94.027344 114.996094 C 93.285156 114.863281 92.539062 114.761719 91.785156 114.695312 C 91.035156 114.628906 90.28125 114.597656 89.527344 114.597656 C 88.769531 114.597656 88.015625 114.628906 87.265625 114.695312 C 86.511719 114.761719 85.765625 114.863281 85.023438 114.996094 C 84.277344 115.128906 83.542969 115.292969 82.8125 115.492188 C 82.085938 115.6875 81.367188 115.917969 80.660156 116.179688 C 79.949219 116.441406 79.253906 116.734375 78.574219 117.054688 C 77.890625 117.378906 77.222656 117.730469 76.570312 118.113281 C 75.921875 118.496094 75.289062 118.90625 74.671875 119.34375 C 74.058594 119.78125 73.460938 120.246094 72.890625 120.734375 L 64.367188 128.035156 L 24.773438 161.980469 C 25.433594 162.613281 26.1875 163.101562 27.035156 163.441406 C 27.886719 163.78125 28.765625 163.949219 29.679688 163.945312 L 149.371094 163.945312 C 150.285156 163.949219 151.164062 163.78125 152.015625 163.441406 C 152.863281 163.101562 153.617188 162.613281 154.277344 161.980469 L 114.683594 128.035156 Z M 106.160156 120.734375 " fill-opacity="1" fill-rule="nonzero"/></g></svg>